<svg version="1.1" viewBox="0.0 0.0 960.0 720.0" fill="none" stroke="none" stroke-linecap="square" stroke-miterlimit="10" xmlns:xlink="http://www.w3.org/1999/xlink" xmlns="http://www.w3.org/2000/svg"><clipPath id="p.0"><path d="m0 0l960.0 0l0 720.0l-960.0 0l0 -720.0z" clip-rule="nonzero"/></clipPath><g clip-path="url(#p.0)"><path fill="#000000" fill-opacity="0.0" d="m0 0l960.0 0l0 720.0l-960.0 0z" fill-rule="evenodd"/><path fill="#000000" fill-opacity="0.0" d="m428.03113 175.48294c-6.190216 0 -15.019653 -6.908249 -12.380432 -12.843887c2.6391907 -5.9356384 16.74704 -10.898666 32.17447 -12.843887c15.427429 -1.9452362 32.17447 -0.87265015 32.17447 -1.7453003" fill-rule="evenodd"/><path stroke="#cfe2f3" stroke-width="16.0" stroke-linejoin="round" stroke-linecap="butt" d="m428.03113 175.48294c-6.190216 0 -15.019653 -6.908249 -12.380432 -12.843887c2.6391907 -5.9356384 16.74704 -10.898666 32.17447 -12.843887c15.427429 -1.9452362 32.17447 -0.87265015 32.17447 -1.7453003" fill-rule="evenodd"/><path fill="#000000" fill-opacity="0.0" d="m318.85565 525.0735l111.55905 -211.9685" fill-rule="evenodd"/><path stroke="#cfe2f3" stroke-width="16.0" stroke-linejoin="round" stroke-linecap="butt" d="m318.85565 525.0735l111.55905 -211.9685" fill-rule="evenodd"/><path fill="#000000" fill-opacity="0.0" d="m639.7559 525.0735l-111.24408 -211.08661" fill-rule="evenodd"/><path stroke="#cfe2f3" stroke-width="16.0" stroke-linejoin="round" stroke-linecap="butt" d="m639.7559 525.0735l-111.24408 -211.08661" fill-rule="evenodd"/><path fill="#000000" fill-opacity="0.0" d="m530.7349 317.19946l0 -146.48817" fill-rule="evenodd"/><path stroke="#cfe2f3" stroke-width="16.0" stroke-linejoin="round" stroke-linecap="butt" d="m530.7349 317.19946l0 -146.48817" fill-rule="evenodd"/><path fill="#000000" fill-opacity="0.0" d="m428.01575 317.19946l0 -148.37794" fill-rule="evenodd"/><path stroke="#cfe2f3" stroke-width="16.0" stroke-linejoin="round" stroke-linecap="butt" d="m428.01575 317.19946l0 -148.37794" fill-rule="evenodd"/><path fill="#000000" fill-opacity="0.0" d="m317.68503 524.5381c2.3780212 0 -2.7361145 9.984253 4.756012 19.968506c7.4921265 9.984192 27.590515 19.968445 55.181 19.968445" fill-rule="evenodd"/><path stroke="#cfe2f3" stroke-width="16.0" stroke-linejoin="round" stroke-linecap="butt" d="m317.68503 524.5381c2.3780212 0 -2.7361145 9.984253 4.756012 19.968506c7.4921265 9.984192 27.590515 19.968445 55.181 19.968445" fill-rule="evenodd"/><path fill="#000000" fill-opacity="0.0" d="m641.0656 524.5381c-2.3779907 0 2.736145 9.984253 -4.7559814 19.968506c-7.4921265 9.984192 -27.590515 19.968445 -55.18103 19.968445" fill-rule="evenodd"/><path stroke="#cfe2f3" stroke-width="16.0" stroke-linejoin="round" stroke-linecap="butt" d="m641.0656 524.5381c-2.3779907 0 2.736145 9.984253 -4.7559814 19.968506c-7.4921265 9.984192 -27.590515 19.968445 -55.18103 19.968445" fill-rule="evenodd"/><path fill="#000000" fill-opacity="0.0" d="m373.98688 564.47504l214.01575 0" fill-rule="evenodd"/><path stroke="#cfe2f3" stroke-width="16.0" stroke-linejoin="round" stroke-linecap="butt" d="m373.98688 564.47504l214.01575 0" fill-rule="evenodd"/><path fill="#000000" fill-opacity="0.0" d="m531.96893 175.48294c6.1901855 0 15.019653 -6.908249 12.380432 -12.843887c-2.6392212 -5.9356384 -16.74701 -10.898666 -32.1745 -12.843887c-15.427399 -1.9452362 -32.17444 -0.87265015 -32.17444 -1.7453003" fill-rule="evenodd"/><path stroke="#cfe2f3" stroke-width="16.0" stroke-linejoin="round" stroke-linecap="butt" d="m531.96893 175.48294c6.1901855 0 15.019653 -6.908249 12.380432 -12.843887c-2.6392212 -5.9356384 -16.74701 -10.898666 -32.1745 -12.843887c-15.427399 -1.9452362 -32.17444 -0.87265015 -32.17444 -1.7453003" fill-rule="evenodd"/><path fill="#000000" fill-opacity="0.0" d="m476.04987 148.36745l7.433075 0" fill-rule="evenodd"/><path stroke="#cfe2f3" stroke-width="16.0" stroke-linejoin="round" stroke-linecap="butt" d="m476.04987 148.36745l7.433075 0" fill-rule="evenodd"/><path fill="#cfe2f3" d="m470.5223 140.93439l6.86615 0l0 9.196854l-6.86615 0z" fill-rule="evenodd"/><path fill="#cfe2f3" d="m481.96063 140.93439l6.86615 0l0 9.196854l-6.86615 0z" fill-rule="evenodd"/><path fill="#cfe2f3" d="m522.7507 167.49344l9.385803 0l0 9.196854l-9.385803 0z" fill-rule="evenodd"/><path fill="#cfe2f3" d="m428.01575 167.49344l8.0 0l0 9.196854l-8.0 0z" fill-rule="evenodd"/><path fill="#cfe2f3" d="m310.3176 525.77167l0 0c0 -4.0529785 3.2855835 -7.338623 7.338562 -7.338623l0 0c1.9463196 0 3.8129272 0.77319336 5.1891785 2.149475c1.3762512 1.3762207 2.149414 3.2427979 2.149414 5.189148l0 0c0 4.0529785 -3.2855835 7.338562 -7.3385925 7.338562l0 0c-4.0529785 0 -7.338562 -3.2855835 -7.338562 -7.338562z" fill-rule="evenodd"/><path fill="#cfe2f3" d="m633.64044 525.77167l0 0c0 -4.0529785 3.2855835 -7.338623 7.338562 -7.338623l0 0c1.9462891 0 3.8129272 0.77319336 5.189148 2.149475c1.3762817 1.3762207 2.149414 3.2427979 2.149414 5.189148l0 0c0 4.0529785 -3.2855835 7.338562 -7.338562 7.338562l0 0c-4.0529785 0 -7.338562 -3.2855835 -7.338562 -7.338562z" fill-rule="evenodd"/><path fill="#d9ead3" d="m352.08923 533.11285l126.996796 -246.80313l127.45993 246.80313z" fill-rule="evenodd"/><path fill="#d9ead3" d="m454.59055 220.17848l49.039368 0l0 115.2126l-49.039368 0z" fill-rule="evenodd"/></g></svg>